HIERARCHY
ROOT Hips
{
  OFFSET 5.84602e-005 68.8428 3.50346
  CHANNELS 6 Xposition Yposition Zposition Zrotation Xrotation Yrotation
  JOINT Spine
  {
    OFFSET 0 8.597 -4.6522
    CHANNELS 3 Zrotation Xrotation Yrotation
    JOINT Spine1
    {
      OFFSET 0 7.8454 0.4098
      CHANNELS 3 Zrotation Xrotation Yrotation
      JOINT Spine2
      {
        OFFSET 0 9.7078 -2.1609
        CHANNELS 3 Zrotation Xrotation Yrotation
        JOINT Neck
        {
          OFFSET 0 21.8761 -0.4549
          CHANNELS 3 Zrotation Xrotation Yrotation
          JOINT Head
          {
            OFFSET 0 12.3537 3.3602
            CHANNELS 3 Zrotation Xrotation Yrotation
            End Site
            {
              OFFSET 0.0001 18.9506 0.5657
            }
          }
        }
        JOINT LeftShoulder
        {
          OFFSET 2.2086 21.1115 7.2329
          CHANNELS 3 Zrotation Xrotation Yrotation
          JOINT LeftArm
          {
            OFFSET 13.1193 3.0282 -4.8998
            CHANNELS 3 Zrotation Xrotation Yrotation
            JOINT LeftForeArm
            {
              OFFSET 27.4081 -0.0973053 -0.2375
              CHANNELS 3 Zrotation Xrotation Yrotation
              JOINT LeftHand
              {
                OFFSET 22.8641 0.0662994 -0.1369
                CHANNELS 3 Zrotation Xrotation Yrotation
                JOINT LeftHandIndex1
                {
                  OFFSET 8.8614 0.775009 2.4612
                  CHANNELS 3 Zrotation Xrotation Yrotation
                  JOINT LeftHandIndex2
                  {
                    OFFSET 3.3146 -0.808304 0.5841
                    CHANNELS 3 Zrotation Xrotation Yrotation
                    JOINT LeftHandIndex3
                    {
                      OFFSET 2.2628 -0.552002 0.3989
                      CHANNELS 3 Zrotation Xrotation Yrotation
                      End Site
                      {
                        OFFSET 1.6102 -0.4807 0.2612
                      }
                    }
                  }
                }
                JOINT LeftHandMiddle1
                {
                  OFFSET 8.9937 0.895004 0.2143
                  CHANNELS 3 Zrotation Xrotation Yrotation
                  JOINT LeftHandMiddle2
                  {
                    OFFSET 4.0984 0.0113983 -0.0242
                    CHANNELS 3 Zrotation Xrotation Yrotation
                    JOINT LeftHandMiddle3
                    {
                      OFFSET 2.2716 0.00689697 -0.0138001
                      CHANNELS 3 Zrotation Xrotation Yrotation
                      End Site
                      {
                        OFFSET 2.0404 -0.1441 0.0027
                      }
                    }
                  }
                }
                JOINT LeftHandRing1
                {
                  OFFSET 8.5234 0.597198 -2.0164
                  CHANNELS 3 Zrotation Xrotation Yrotation
                  JOINT LeftHandRing2
                  {
                    OFFSET 3.7188 -0.188293 -0.2328
                    CHANNELS 3 Zrotation Xrotation Yrotation
                    JOINT LeftHandRing3
                    {
                      OFFSET 2.1191 -0.106598 -0.1332
                      CHANNELS 3 Zrotation Xrotation Yrotation
                      End Site
                      {
                        OFFSET 1.8737 -0.2304 -0.0886
                      }
                    }
                  }
                }
                JOINT LeftHandPinky1
                {
                  OFFSET 7.9094 -0.601089 -3.4825
                  CHANNELS 3 Zrotation Xrotation Yrotation
                  JOINT LeftHandPinky2
                  {
                    OFFSET 2.2874 -0.477005 -0.6314
                    CHANNELS 3 Zrotation Xrotation Yrotation
                    JOINT LeftHandPinky3
                    {
                      OFFSET 1.6774 -0.349396 -0.4633
                      CHANNELS 3 Zrotation Xrotation Yrotation
                      End Site
                      {
                        OFFSET 1.4888 -0.4091 -0.3416
                      }
                    }
                  }
                }
                JOINT LeftHandThumb1
                {
                  OFFSET 1.833 -1.3875 1.3896
                  CHANNELS 3 Zrotation Xrotation Yrotation
                  JOINT LeftHandThumb2
                  {
                    OFFSET 3.4129 -1.121 2.5732
                    CHANNELS 3 Zrotation Xrotation Yrotation
                    JOINT LeftHandThumb3
                    {
                      OFFSET 2.2474 -0.804199 1.6192
                      CHANNELS 3 Zrotation Xrotation Yrotation
                      End Site
                      {
                        OFFSET 1.6527 -0.5689 1.1317
                      }
                    }
                  }
                }
              }
            }
          }
        }
        JOINT RightShoulder
        {
          OFFSET -2.2086 21.1115 7.2329
          CHANNELS 3 Zrotation Xrotation Yrotation
          JOINT RightArm
          {
            OFFSET -13.1216 3.0287 -4.9007
            CHANNELS 3 Zrotation Xrotation Yrotation
            JOINT RightForeArm
            {
              OFFSET -27.4081 -0.0973053 -0.2375
              CHANNELS 3 Zrotation Xrotation Yrotation
              JOINT RightHand
              {
                OFFSET -22.8641 0.0664063 -0.1369
                CHANNELS 3 Zrotation Xrotation Yrotation
                JOINT RightHandIndex1
                {
                  OFFSET -8.8614 0.774994 2.4612
                  CHANNELS 3 Zrotation Xrotation Yrotation
                  JOINT RightHandIndex2
                  {
                    OFFSET -3.3146 -0.808304 0.5841
                    CHANNELS 3 Zrotation Xrotation Yrotation
                    JOINT RightHandIndex3
                    {
                      OFFSET -2.2628 -0.552002 0.3989
                      CHANNELS 3 Zrotation Xrotation Yrotation
                      End Site
                      {
                        OFFSET -1.6102 -0.4807 0.2612
                      }
                    }
                  }
                }
                JOINT RightHandMiddle1
                {
                  OFFSET -8.9937 0.894989 0.2143
                  CHANNELS 3 Zrotation Xrotation Yrotation
                  JOINT RightHandMiddle2
                  {
                    OFFSET -4.0984 0.0113983 -0.0242
                    CHANNELS 3 Zrotation Xrotation Yrotation
                    JOINT RightHandMiddle3
                    {
                      OFFSET -2.2716 0.00691223 -0.0138001
                      CHANNELS 3 Zrotation Xrotation Yrotation
                      End Site
                      {
                        OFFSET -2.0404 -0.1441 0.0027
                      }
                    }
                  }
                }
                JOINT RightHandRing1
                {
                  OFFSET -8.5234 0.597198 -2.0164
                  CHANNELS 3 Zrotation Xrotation Yrotation
                  JOINT RightHandRing2
                  {
                    OFFSET -3.7188 -0.188309 -0.2328
                    CHANNELS 3 Zrotation Xrotation Yrotation
                    JOINT RightHandRing3
                    {
                      OFFSET -2.1191 -0.106598 -0.1332
                      CHANNELS 3 Zrotation Xrotation Yrotation
                      End Site
                      {
                        OFFSET -1.8737 -0.2304 -0.0886
                      }
                    }
                  }
                }
                JOINT RightHandPinky1
                {
                  OFFSET -7.9094 -0.601105 -3.4825
                  CHANNELS 3 Zrotation Xrotation Yrotation
                  JOINT RightHandPinky2
                  {
                    OFFSET -2.2874 -0.477005 -0.6314
                    CHANNELS 3 Zrotation Xrotation Yrotation
                    JOINT RightHandPinky3
                    {
                      OFFSET -1.6774 -0.349396 -0.4633
                      CHANNELS 3 Zrotation Xrotation Yrotation
                      End Site
                      {
                        OFFSET -1.4888 -0.4091 -0.3416
                      }
                    }
                  }
                }
                JOINT RightHandThumb1
                {
                  OFFSET -1.833 -1.38751 1.3896
                  CHANNELS 3 Zrotation Xrotation Yrotation
                  JOINT RightHandThumb2
                  {
                    OFFSET -3.41299 -1.12099 2.5732
                    CHANNELS 3 Zrotation Xrotation Yrotation
                    JOINT RightHandThumb3
                    {
                      OFFSET -2.24741 -0.804108 1.6192
                      CHANNELS 3 Zrotation Xrotation Yrotation
                      End Site
                      {
                        OFFSET -1.6527 -0.5689 1.1317
                      }
                    }
                  }
                }
              }
            }
          }
        }
      }
    }
  }
  JOINT RightUpLeg
  {
    OFFSET -9.1966 3.8861 -0.7581
    CHANNELS 3 Zrotation Xrotation Yrotation
    JOINT RightLeg
    {
      OFFSET -0.7359 -41.0265 0
      CHANNELS 3 Zrotation Xrotation Yrotation
      JOINT RightFoot
      {
        OFFSET 0 -40.2855 0
        CHANNELS 3 Zrotation Xrotation Yrotation
        JOINT RightToeBase
        {
          OFFSET 0 -5.6122 11.7359
          CHANNELS 3 Zrotation Xrotation Yrotation
          End Site
          {
            OFFSET 0 0 7.8731
          }
        }
      }
    }
  }
  JOINT LeftUpLeg
  {
    OFFSET 9.1965 3.8864 -0.7581
    CHANNELS 3 Zrotation Xrotation Yrotation
    JOINT LeftLeg
    {
      OFFSET 0.7359 -41.0268 0
      CHANNELS 3 Zrotation Xrotation Yrotation
      JOINT LeftFoot
      {
        OFFSET 0 -40.2855 0
        CHANNELS 3 Zrotation Xrotation Yrotation
        JOINT LeftToeBase
        {
          OFFSET 0 -5.6122 11.7359
          CHANNELS 3 Zrotation Xrotation Yrotation
          End Site
          {
            OFFSET 0 0 7.8731
          }
        }
      }
    }
  }
}
MOTION
Frames:	5
Frame Time:	0.0333333
5.84602e-005 68.8428 3.50346 0 0 -0 0 0 -0 0 0 -0 0 0 -0 0 0 -0 0 0 -0 0 0 -0 0 0 -0 0 0 -0 0 0 -0 0 0 -0 0 0 -0 0 0 -0 0 0 -0 -0.0146107 -8.87603e-005 -2.63497e-007 2.99804e-018 -2.42657e-020 -1.42182e-022 0 0 -0 -0.0187562 -0.001176 5.858e-005 5.06224e-018 3.88251e-019 1.21329e-020 0 0 -0 -0.012269 -0.00324817 0.000675346 -1.74678e-018 3.88251e-019 -0 0 0 -0 0 0 -0 0 0 -0 0 0 -0 0 0 -0 0 0 -0 0 0 -0 0 0 -0 0 0 -0 0 0 -0 0 0 -0 0.0149955 -9.10982e-005 2.64101e-007 -9.69331e-018 1.21329e-020 -4.7394e-023 0 0 -0 0.0189956 -0.00119102 -5.96516e-005 -5.41541e-019 0 2.42657e-020 0 0 -0 0.0122698 -0.00324857 -0.000673756 -2.00796e-019 0 -1.94126e-019 0 0 -0 0 0 -0 0 0 -0 3.39842 1.33031 -0.0637918 -5.65207e-008 0.834868 -0.000436188 -3.39935 -2.16518 -0.0642563 -8.89002e-024 -1.18485e-023 -1.48106e-024 -3.39844 1.35642 0.0640283 -3.18788e-007 0.782166 -0.000588827 3.39931 -2.13858 0.0634662 1.1399e-023 0 -0 
-0.685897 4.46561 5.23656 -180 -85.9956 -180 -0.295157 2.29978 -0.186457 -0.583516 4.60047 -0.361479 -0.583517 4.60046 -0.36148 1.51649e-005 -3.00268 3.11268e-006 1.71184e-007 7.99913 -8.90348e-008 -4.39743 -20.5217 17.5533 91.7978 0.248908 -5.27603 1.73791 -0.872842 -4.58211 17.8986 -42.7858 29.6015 -4.61073e-007 3.25368e-006 -2.7789e-006 -3.01408e-006 1.38039e-006 -4.58864e-007 1.59028e-015 0 3.18055e-015 -4.61073e-007 3.25368e-006 -2.7789e-006 -0.0145895 -8.6303e-005 -2.29846e-006 3.18055e-015 -2.78299e-015 6.36111e-015 -4.61073e-007 3.25368e-006 -2.7789e-006 -0.0187719 -0.00117652 5.91547e-005 -1.59028e-015 3.57812e-015 -3.18055e-015 -4.61073e-007 3.25368e-006 -2.7789e-006 -0.012314 -0.0032556 0.000682808 -1.59028e-015 0 3.18055e-015 -4.61073e-007 3.25368e-006 -2.7789e-006 -3.01408e-006 1.38039e-006 -4.58864e-007 1.59028e-015 0 3.18055e-015 4.3 -20.4681 -17.7438 -91.8875 0.229911 5.27596 -1.7629 -0.863136 4.56808 -17.9398 -43.0419 -29.8129 8.93884e-007 1.12205e-006 8.37731e-007 -6.36111e-015 -4.77083e-015 -9.54166e-015 1.82274e-006 2.32686e-007 -1.71051e-007 8.93884e-007 1.12205e-006 8.37731e-007 0.0150149 -9.64139e-005 2.53254e-008 8.93833e-007 1.12216e-006 8.37584e-007 8.93884e-007 1.12205e-006 8.37731e-007 0.0189836 -0.00118447 -5.73888e-005 8.93827e-007 1.12219e-006 8.37536e-007 8.93884e-007 1.12205e-006 8.37731e-007 0.0122515 -0.0032428 -0.000674678 8.93859e-007 1.12216e-006 8.37588e-007 8.93884e-007 1.12205e-006 8.37731e-007 -6.36111e-015 -4.77083e-015 -9.54166e-015 1.82274e-006 2.32686e-007 -1.71051e-007 -94.1897 -48.744 -124.669 0.657443 8.75524 9.11539 -15.0754 12.5971 18.1549 -3.3219e-006 -1.04649e-006 1.10993e-006 94.2056 -48.8338 124.658 -0.63267 8.72327 -9.13585 14.8598 12.1163 -18.0868 -3.6966e-006 -2.4679e-007 -2.00127e-007 
-0.685901 4.46537 5.23212 -180 -85.9956 -180 -0.295151 2.29974 -0.186454 -0.58351 4.60043 -0.361476 -0.583509 4.60043 -0.361475 4.09213e-007 -2.50292 -6.7257e-006 1.89786e-007 7.99914 -5.17426e-007 -4.39745 -20.5216 17.5533 91.7978 0.24892 -5.27604 1.73791 -0.872852 -4.5821 17.8986 -42.7858 29.6015 0 0 -3.18055e-015 8.68788e-007 -1.15852e-006 8.0944e-007 -1.59028e-015 5.56597e-015 -9.54166e-015 0 0 -3.18055e-015 -0.0145968 -8.73451e-005 -1.25194e-006 1.27805e-006 9.36802e-007 -1.15989e-006 0 0 -3.18055e-015 -0.0187434 -0.00117212 5.61203e-005 1.59028e-015 -3.57812e-015 3.18055e-015 0 0 -3.18055e-015 -0.0122312 -0.00323811 0.000680661 1.27777e-006 9.37105e-007 -1.16002e-006 0 0 -3.18055e-015 8.68788e-007 -1.15852e-006 8.0944e-007 -1.59028e-015 5.56597e-015 -9.54166e-015 4.29997 -20.468 -17.7438 -91.8875 0.229921 5.27598 -1.7629 -0.863148 4.56807 -17.9398 -43.0419 -29.8129 -8.93884e-007 -1.12205e-006 -8.37731e-007 -1.78777e-006 -2.2441e-006 -1.67546e-006 -8.93884e-007 -1.12205e-006 -8.37731e-007 -8.93884e-007 -1.12205e-006 -8.37731e-007 0.0150043 -9.26186e-005 1.35535e-006 -8.93833e-007 -1.12216e-006 -8.37583e-007 -8.93884e-007 -1.12205e-006 -8.37731e-007 0.0189807 -0.00118473 -6.42171e-005 -8.93827e-007 -1.12219e-006 -8.37536e-007 -8.93884e-007 -1.12205e-006 -8.37731e-007 0.0122474 -0.00324125 -0.000675294 -8.93859e-007 -1.12216e-006 -8.37588e-007 -8.93884e-007 -1.12205e-006 -8.37731e-007 -1.78777e-006 -2.2441e-006 -1.67546e-006 -8.93884e-007 -1.12205e-006 -8.37731e-007 -94.2591 -48.713 -124.735 0.658645 9.43127 9.08376 -15.0844 12.5309 18.1471 -1.13673e-007 -3.23138e-007 7.75653e-007 94.275 -48.803 124.725 -0.633842 9.39916 -9.10451 14.869 12.0502 -18.0791 -2.20033e-007 6.45989e-007 1.55292e-006 
-0.6859 4.46516 5.22771 -180 -85.9956 -180 -0.295155 2.29978 -0.186457 -0.583516 4.60047 -0.361479 -0.583517 4.60046 -0.36148 1.29963e-005 -2.00327 4.4476e-006 3.3693e-007 7.99914 1.13012e-007 -4.39743 -20.5217 17.5533 91.7979 0.248914 -5.27602 1.7379 -0.872851 -4.58211 17.8986 -42.7858 29.6015 6.36111e-015 7.95139e-016 9.54166e-015 -8.68787e-007 1.15852e-006 -8.0944e-007 1.59028e-015 -4.77083e-015 -3.18055e-015 6.36111e-015 7.95139e-016 9.54166e-015 -0.0145919 -8.90801e-005 1.98622e-006 -1.59028e-015 4.37326e-015 -3.18055e-015 6.36111e-015 7.95139e-016 9.54166e-015 -0.0187486 -0.00117861 5.02194e-005 4.6346e-031 -8.34896e-015 3.18055e-015 6.36111e-015 7.95139e-016 9.54166e-015 -0.0122545 -0.00324204 0.000673617 0 5.96354e-015 -0 6.36111e-015 7.95139e-016 9.54166e-015 -8.68787e-007 1.15852e-006 -8.0944e-007 1.59028e-015 -4.77083e-015 -3.18055e-015 4.3 -20.4681 -17.7438 -91.8875 0.229921 5.27597 -1.76288 -0.863152 4.56808 -17.9398 -43.0419 -29.8129 -8.93884e-007 -1.12205e-006 -8.37731e-007 -1.78777e-006 -2.2441e-006 -1.67546e-006 -1.82275e-006 -2.32688e-007 1.71053e-007 -8.93884e-007 -1.12205e-006 -8.37731e-007 0.014998 -9.12803e-005 -1.89798e-006 -8.93833e-007 -1.12216e-006 -8.37583e-007 -8.93884e-007 -1.12205e-006 -8.37731e-007 0.0189834 -0.00118116 -7.30691e-005 -8.93826e-007 -1.1222e-006 -8.37536e-007 -8.93884e-007 -1.12205e-006 -8.37731e-007 0.0122386 -0.00324438 -0.000674897 -8.93859e-007 -1.12216e-006 -8.37588e-007 -8.93884e-007 -1.12205e-006 -8.37731e-007 -1.78777e-006 -2.2441e-006 -1.67546e-006 -1.82275e-006 -2.32688e-007 1.71053e-007 -94.3249 -48.6837 -124.799 0.65993 10.1017 9.05259 -15.093 12.4677 18.1395 -1.1714e-007 -3.2103e-007 7.75915e-007 94.3411 -48.7735 124.789 -0.635086 10.0698 -9.07354 14.8777 11.9868 -18.0717 8.74653e-015 0 2.38542e-015 
-0.685903 4.46497 5.22331 -180 -85.9956 -180 -0.295153 2.29976 -0.186455 -0.583513 4.60045 -0.361477 -0.583513 4.60046 -0.361477 9.56085e-006 -1.50333 7.46449e-007 4.16272e-007 7.99914 6.36207e-008 -4.39745 -20.5216 17.5533 91.7978 0.248912 -5.27603 1.73791 -0.87285 -4.5821 17.8986 -42.7858 29.6015 2.64834e-031 -2.38542e-015 6.36111e-015 1.59028e-015 3.18055e-015 3.18055e-015 4.77083e-015 -3.18055e-015 3.18055e-015 2.64834e-031 -2.38542e-015 6.36111e-015 -0.0146234 -8.676e-005 -1.84647e-007 -4.30356e-030 -2.5842e-014 -9.54166e-015 2.64834e-031 -2.38542e-015 6.36111e-015 -0.018782 -0.00117709 6.171e-005 -1.27849e-006 -9.36962e-007 1.15988e-006 2.64834e-031 -2.38542e-015 6.36111e-015 -0.0122674 -0.00324632 0.000665984 1.59028e-015 3.97569e-016 -0 2.64834e-031 -2.38542e-015 6.36111e-015 1.59028e-015 3.18055e-015 3.18055e-015 4.77083e-015 -3.18055e-015 3.18055e-015 4.29999 -20.4681 -17.7438 -91.8875 0.229923 5.27597 -1.7629 -0.863139 4.56807 -17.9398 -43.0419 -29.8129 0 2.38542e-015 -0 1.31524e-006 -8.98405e-007 1.79846e-006 -0 -1.59028e-015 -0 0 2.38542e-015 -0 0.0150115 -9.28211e-005 5.45057e-006 -4.77083e-015 3.97569e-015 -0 0 2.38542e-015 -0 0.0189798 -0.00118383 -6.32056e-005 9.30874e-007 -8.89655e-007 -1.00865e-006 0 2.38542e-015 -0 0.0122785 -0.00325176 -0.000675463 1.59028e-015 1.59028e-015 3.18055e-015 0 2.38542e-015 -0 1.31524e-006 -8.98405e-007 1.79846e-006 -0 -1.59028e-015 -0 -94.3872 -48.6558 -124.86 0.661289 10.7667 9.0218 -15.1013 12.4072 18.1324 6.84971e-007 -2.76664e-007 -3.74246e-006 94.4033 -48.7458 124.85 -0.636429 10.7345 -9.04303 14.886 11.9265 -18.0646 -3.45881e-006 1.35465e-006 1.86318e-006 
